<svg width="12.000610" height="10.653595" viewBox="0 0 12.0006 10.6536" fill="none" xmlns="http://www.w3.org/2000/svg" xmlns:xlink="http://www.w3.org/1999/xlink">
	<desc>
			Created with Pixso.
	</desc>
	<defs/>
	<path id="Vector" d="M11.33 0L0.66 0C0.29 0 0 0.29 0 0.66L0 1.99C0 2.36 0.29 2.66 0.66 2.66L11.33 2.66C11.7 2.66 12 2.36 12 1.99L12 0.66C11.99 0.29 11.7 0 11.33 0Z" fill="#656CEE" fill-opacity="1.000000" fill-rule="nonzero"/>
	<path id="Vector" d="M11.33 3.99L0.66 3.99C0.29 3.99 0 4.29 0 4.66L0 5.99C0 6.35 0.29 6.65 0.66 6.65L11.33 6.65C11.7 6.65 12 6.35 12 5.99L12 4.66C11.99 4.29 11.7 3.99 11.33 3.99Z" fill="#656CEE" fill-opacity="1.000000" fill-rule="nonzero"/>
	<path id="Vector" d="M11.33 7.98L0.66 7.98C0.29 7.98 0 8.28 0 8.65L0 9.98C0 10.35 0.29 10.65 0.66 10.65L11.33 10.65C11.7 10.65 12 10.35 12 9.98L12 8.65C11.99 8.28 11.7 7.98 11.33 7.98Z" fill="#656CEE" fill-opacity="1.000000" fill-rule="nonzero"/>
</svg>
