<svg width="24.000000" height="24.000000" viewBox="0 0 24 24" fill="none" xmlns="http://www.w3.org/2000/svg" xmlns:xlink="http://www.w3.org/1999/xlink">
	<desc>
			Created with Pixso.
	</desc>
	<defs/>
	<rect id="Rectangle 217" rx="8.000000" width="24.000000" height="24.000000" fill="#656CEE" fill-opacity="1.000000"/>
	<path id="Shape" d="M17.4635 7.21155C17.3135 6.7616 16.8635 6.46155 16.4135 6.46155L8.16347 6.46155C7.63847 6.46155 7.26347 6.7616 7.11346 7.21155L5.53847 11.7115L5.53847 17.7115C5.53847 18.1615 5.83847 18.4615 6.28847 18.4615L7.03847 18.4615C7.48846 18.4615 7.78847 18.1615 7.78847 17.7115L7.78847 16.9615L16.7885 16.9615L16.7885 17.7115C16.7885 18.1615 17.0885 18.4615 17.5385 18.4615L18.2885 18.4615C18.7385 18.4615 19.0385 18.1615 19.0385 17.7115L19.0385 11.7115L17.4635 7.21155ZM8.16385 7.58655L7.03885 10.9615L17.5388 10.9615L16.4138 7.58655L8.16385 7.58655ZM7.03885 13.5865C7.03885 14.1865 7.56384 14.7115 8.16385 14.7115C8.76384 14.7115 9.28885 14.1865 9.28885 13.5865C9.28885 12.9866 8.76384 12.4615 8.16385 12.4615C7.56384 12.4615 7.03885 12.9866 7.03885 13.5865ZM16.4138 14.7115C15.8138 14.7115 15.2888 14.1865 15.2888 13.5865C15.2888 12.9866 15.8138 12.4615 16.4138 12.4615C17.0138 12.4615 17.5388 12.9866 17.5388 13.5865C17.5388 14.1865 17.0138 14.7115 16.4138 14.7115Z" clip-rule="evenodd" fill="#FFFFFF" fill-opacity="1.000000" fill-rule="evenodd"/>
</svg>
