<svg width="56.000000" height="52.000000" viewBox="0 0 56 52" fill="none" xmlns="http://www.w3.org/2000/svg" xmlns:xlink="http://www.w3.org/1999/xlink">
	<desc>
			Created with Pixso.
	</desc>
	<defs>
		<filter id="filter_1_1785_dd" x="0.000000" y="0.000000" width="56.000000" height="52.000000" filterUnits="userSpaceOnUse" color-interpolation-filters="sRGB">
			<feFlood flood-opacity="0" result="BackgroundImageFix"/>
			<feBlend mode="normal" in="SourceGraphic" in2="BackgroundImageFix" result="shape"/>
			<feGaussianBlur stdDeviation="6.66667" result="effect_layerBlur_1"/>
		</filter>
		<clipPath id="clip1_1787">
			<rect id="pointer 1" rx="-0.500000" width="15.000000" height="15.000000" transform="translate(21.500000 11.500000)" fill="white" fill-opacity="0"/>
		</clipPath>
		<radialGradient gradientTransform="translate(41 10.125) rotate(137.564) scale(24.6998 24.6998)" cx="0.000000" cy="0.000000" r="1.000000" id="paint_radial_1_1786_0" gradientUnits="userSpaceOnUse">
			<stop stop-color="#969BFF"/>
			<stop offset="1.000000" stop-color="#656CEE"/>
		</radialGradient>
		<linearGradient x1="16.000000" y1="7.000004" x2="40.999996" y2="32.000008" id="paint_linear_1_1794_0" gradientUnits="userSpaceOnUse">
			<stop stop-color="#FFFFFF"/>
			<stop offset="1.000000" stop-color="#FFFFFF" stop-opacity="0.000000"/>
		</linearGradient>
	</defs>
	<g opacity="0.900000" filter="url(#filter_1_1785_dd)">
		<rect id="Background" x="20.000000" y="20.000000" rx="6.000000" width="16.000000" height="12.000000" fill="#656CEE" fill-opacity="1.000000"/>
	</g>
	<rect id="Background" x="16.000000" y="7.000000" rx="4.000000" width="25.000000" height="25.000000" fill="url(#paint_radial_1_1786_0)" fill-opacity="1.000000"/>
	<rect id="pointer 1" rx="-0.500000" width="15.000000" height="15.000000" transform="translate(21.500000 11.500000)" fill="#FFFFFF" fill-opacity="0"/>
	<g clip-path="url(#clip1_1787)">
		<path id="Vector" d="M34.66 11.31C33.37 11.31 32.32 12.36 32.32 13.65C32.32 14.17 32.65 14.96 33.32 16.06C33.56 16.45 33.8 16.8 33.98 17.06L26.92 17.06C25.54 17.06 24.41 18.18 24.41 19.56C24.41 20.95 25.54 22.07 26.92 22.07L30.13 22.07C30.86 22.07 31.44 22.66 31.44 23.38C31.44 24.11 30.86 24.7 30.13 24.7L24.04 24.7C23.86 24.05 23.26 23.57 22.55 23.57C21.69 23.57 21 24.27 21 25.12C21 25.98 21.69 26.68 22.55 26.68C23.23 26.68 23.8 26.24 24.02 25.63C24.02 25.63 24.02 25.63 24.02 25.63L30.13 25.63C31.37 25.63 32.38 24.62 32.38 23.38C32.38 22.14 31.37 21.13 30.13 21.13L26.92 21.13C26.06 21.13 25.35 20.43 25.35 19.56C25.35 18.7 26.06 17.99 26.92 17.99L34.66 17.99L34.66 17.99L34.66 17.99L35.03 17.49C35.05 17.46 35.52 16.83 35.99 16.06C36.67 14.96 37 14.17 37 13.65C37 12.36 35.95 11.31 34.66 11.31ZM22.55 25.74C22.21 25.74 21.93 25.46 21.93 25.12C21.93 24.78 22.21 24.51 22.55 24.51C22.89 24.51 23.16 24.78 23.16 25.12C23.16 25.46 22.89 25.74 22.55 25.74ZM34.66 16.4C33.99 15.42 33.26 14.16 33.26 13.65C33.26 12.88 33.89 12.25 34.66 12.25C35.43 12.25 36.06 12.88 36.06 13.65C36.06 14.16 35.33 15.42 34.66 16.4Z" fill="#FFFFFF" fill-opacity="1.000000" fill-rule="nonzero"/>
		<path id="Vector" d="M34.66 13.04C34.4 13.04 34.18 13.26 34.18 13.52C34.18 13.78 34.4 13.99 34.66 13.99C34.92 13.99 35.13 13.78 35.13 13.52C35.13 13.26 34.92 13.04 34.66 13.04Z" fill="#FFFFFF" fill-opacity="1.000000" fill-rule="nonzero"/>
	</g>
	<rect id="Background" x="16.500000" y="7.500000" rx="4.000000" width="24.000000" height="24.000000" stroke="url(#paint_linear_1_1794_0)" stroke-opacity="1.000000" stroke-width="1.000000"/>
</svg>
