<svg width="24.000000" height="24.000000" viewBox="0 0 24 24" fill="none" xmlns="http://www.w3.org/2000/svg" xmlns:xlink="http://www.w3.org/1999/xlink">
	<desc>
			Created with Pixso.
	</desc>
	<defs>
		<clipPath id="clip1_342">
			<rect id="electric-car 2" width="14.000000" height="14.000000" transform="matrix(-1 0 0 1 19 5)" fill="white" fill-opacity="0"/>
		</clipPath>
	</defs>
	<rect id="Rectangle 217" rx="8.000000" width="24.000000" height="24.000000" fill="#009688" fill-opacity="1.000000"/>
	<rect id="electric-car 2" width="14.000000" height="14.000000" transform="matrix(-1 0 0 1 19 5)" fill="#FFFFFF" fill-opacity="0"/>
	<g clip-path="url(#clip1_342)">
		<path id="Vector" d="M9.75 15.99C10.58 15.99 11.26 16.66 11.26 17.49C11.26 18.32 10.58 19 9.75 19C8.92 19 8.25 18.32 8.25 17.49C8.25 16.66 8.92 15.99 9.75 15.99Z" fill="#FFFFFF" fill-opacity="1.000000" fill-rule="nonzero"/>
		<path id="Vector" d="M15.85 15.99C16.68 15.99 17.35 16.66 17.35 17.49C17.35 18.32 16.68 19 15.85 19C15.02 19 14.35 18.32 14.35 17.49C14.35 16.66 15.02 15.99 15.85 15.99Z" fill="#FFFFFF" fill-opacity="1.000000" fill-rule="nonzero"/>
		<path id="Vector" d="M14.25 10.52C14.72 10.52 15.14 10.78 15.35 11.2L16.24 12.98L12.43 12.98L12.43 10.52L14.25 10.52Z" fill="#FFFFFF" fill-opacity="1.000000" fill-rule="nonzero"/>
		<path id="Vector" d="M9.79 10.52L11.61 10.52L11.61 12.98L8.05 12.98L8.63 11.34C8.8 10.85 9.27 10.52 9.79 10.52Z" fill="#FFFFFF" fill-opacity="1.000000" fill-rule="nonzero"/>
		<path id="Vector" d="M7.59 6.36L10.02 6.36C10.21 5.58 10.91 5 11.75 5L13.66 5C13.89 5 14.07 5.18 14.07 5.41L14.07 5.54L15.3 5.54C15.53 5.54 15.71 5.73 15.71 5.95C15.71 6.18 15.53 6.36 15.3 6.36L14.07 6.36L14.07 7.18L15.3 7.18C15.53 7.18 15.71 7.37 15.71 7.59C15.71 7.82 15.53 8 15.3 8L14.07 8L14.07 8.14C14.07 8.37 13.89 8.55 13.66 8.55L11.75 8.55C10.91 8.55 10.21 7.97 10.02 7.18L7.59 7.18C6.61 7.18 5.82 7.98 5.82 8.96L5.82 15.58L6.61 15.58L6.61 15.03C6.61 14.35 7.16 13.8 7.84 13.8L17.49 13.8C18.18 13.8 18.76 14.26 18.94 14.89L18.17 14.89C17.95 14.89 17.76 15.08 17.76 15.3C17.76 15.53 17.95 15.71 18.17 15.71L19 15.71L19 17.22C19 17.44 18.81 17.63 18.58 17.63L18.17 17.63C18.17 17.58 18.17 17.54 18.17 17.49C18.17 16.21 17.13 15.17 15.85 15.17C14.57 15.17 13.53 16.21 13.53 17.49C13.53 17.54 13.53 17.58 13.53 17.63L12.07 17.63C12.08 17.58 12.08 17.54 12.08 17.49C12.08 16.21 11.03 15.17 9.75 15.17C8.47 15.17 7.43 16.21 7.43 17.49C7.43 17.54 7.43 17.58 7.43 17.63L7.02 17.63C6.79 17.63 6.61 17.44 6.61 17.22L6.61 16.4L5.41 16.4C5.18 16.4 5 16.21 5 15.99L5 8.96C5 7.53 6.16 6.36 7.59 6.36ZM12.16 7.18C12.39 7.18 12.57 7 12.57 6.77C12.57 6.55 12.39 6.36 12.16 6.36C11.93 6.36 11.75 6.55 11.75 6.77C11.75 7 11.93 7.18 12.16 7.18Z" fill="#FFFFFF" fill-opacity="1.000000" fill-rule="nonzero"/>
	</g>
</svg>
