<svg width="28.000000" height="27.995941" viewBox="0 0 28 27.9959" fill="none" xmlns="http://www.w3.org/2000/svg" xmlns:xlink="http://www.w3.org/1999/xlink">
	<desc>
			Created with Pixso.
	</desc>
	<defs/>
	<path id="Vector" d="M21.43 27.99L6.56 27.99C2.94 27.99 0 25.05 0 21.43L0 12.23C0 10.19 0.96 8.24 2.58 7.01L10.02 1.34C12.36 -0.45 15.63 -0.45 17.97 1.34L20.34 3.14L20.34 1.74C20.4 0.29 22.47 0.29 22.53 1.74L22.53 5.35C22.53 5.76 22.29 6.14 21.92 6.33C21.55 6.51 21.1 6.47 20.77 6.22L16.65 3.08C15.09 1.88 12.9 1.88 11.34 3.07L3.9 8.75C2.83 9.57 2.18 10.87 2.18 12.23L2.18 21.43C2.18 23.84 4.15 25.8 6.56 25.8L21.43 25.8C23.84 25.8 25.81 23.84 25.81 21.43L25.81 12.23C25.81 10.85 25.17 9.55 24.11 8.74C23.62 8.37 23.53 7.68 23.9 7.2C24.27 6.72 24.95 6.63 25.43 7C27.04 8.22 28 10.18 28 12.23L28 21.43C28 25.05 25.05 27.99 21.43 27.99ZM11.81 12.62C11.05 12.62 10.44 13.24 10.44 13.99C10.51 15.8 13.1 15.8 13.17 13.99C13.17 13.24 12.56 12.62 11.81 12.62ZM17.55 13.99C17.48 15.8 14.89 15.8 14.82 13.99C14.89 12.18 17.48 12.18 17.55 13.99ZM13.17 18.37C13.1 20.18 10.51 20.18 10.44 18.37C10.51 16.55 13.1 16.55 13.17 18.37ZM17.55 18.37C17.48 20.18 14.89 20.18 14.82 18.37C14.89 16.55 17.48 16.55 17.55 18.37Z" fill="#FFFFFF" fill-opacity="0.800000" fill-rule="nonzero"/>
</svg>
