<svg width="27.990723" height="27.999939" viewBox="0 0 27.9907 27.9999" fill="none" xmlns="http://www.w3.org/2000/svg" xmlns:xlink="http://www.w3.org/1999/xlink">
	<desc>
			Created with Pixso.
	</desc>
	<defs/>
	<path id="Vector" d="M24.24 1.95L20.72 0.52C19.47 0.02 18.11 -0.13 16.78 0.11C16.77 0.11 16.76 0.12 16.75 0.12L9.4 1.65L6.25 0.34C6.25 0.34 6.24 0.34 6.24 0.34C3.32 -0.9 -0.05 1.37 0 4.54L0 20.47C0 22.93 1.47 25.11 3.74 26.04L7.26 27.47C8.12 27.82 9.02 27.99 9.94 27.99C10.36 27.99 10.78 27.96 11.2 27.88C11.21 27.88 11.22 27.88 11.23 27.88L18.58 26.34L21.73 27.65C21.73 27.65 21.74 27.65 21.74 27.65C23.14 28.22 24.73 28.06 25.98 27.21C27.24 26.37 27.99 24.96 27.99 23.45L27.99 7.52C27.99 5.07 26.51 2.88 24.24 1.95ZM25.8 23.45C25.8 24.24 25.42 24.96 24.76 25.4C24.1 25.84 23.3 25.93 22.57 25.63L19.11 24.19C18.91 24.11 18.68 24.09 18.47 24.13L10.8 25.73C9.88 25.89 8.95 25.8 8.09 25.45L4.57 24.01C3.12 23.43 2.18 22.03 2.18 20.47L2.18 4.54C2.18 3.75 2.56 3.03 3.22 2.59C3.88 2.14 4.68 2.07 5.41 2.36L8.87 3.8C9.07 3.88 9.3 3.9 9.51 3.86L17.18 2.26C18.1 2.1 19.04 2.2 19.9 2.55L23.41 3.98C24.86 4.57 25.8 5.96 25.8 7.52L25.8 23.45L25.8 23.45ZM10.87 12.52C10.87 13.27 10.26 13.89 9.51 13.89C7.69 13.81 7.7 11.22 9.51 11.15C10.26 11.15 10.87 11.76 10.87 12.52ZM19.84 15.58C19.84 16.34 19.23 16.95 18.47 16.95C16.66 16.87 16.66 14.29 18.47 14.21C19.23 14.21 19.84 14.83 19.84 15.58ZM9.51 9.24C8.9 9.24 8.41 8.75 8.41 8.15L8.41 7.05C8.47 5.6 10.54 5.6 10.6 7.05L10.6 8.15C10.6 8.75 10.11 9.24 9.51 9.24ZM10.6 22.52L10.6 16.89C10.54 15.44 8.47 15.44 8.41 16.89L8.41 22.52C8.41 23.13 8.9 23.62 9.51 23.62C10.11 23.62 10.6 23.13 10.6 22.52ZM19.57 20.99L19.57 19.95C19.51 18.5 17.44 18.5 17.38 19.95L17.38 20.99C17.38 21.6 17.87 22.09 18.47 22.09C19.08 22.09 19.57 21.6 19.57 20.99ZM19.57 11.21L19.57 5.52C19.51 4.07 17.44 4.07 17.38 5.52L17.38 11.21C17.38 11.81 17.87 12.3 18.47 12.3C19.08 12.3 19.57 11.81 19.57 11.21Z" fill="#FFFFFF" fill-opacity="0.700000" fill-rule="nonzero"/>
</svg>
