<svg width="28.000000" height="28.000000" viewBox="0 0 28 28" fill="none" xmlns="http://www.w3.org/2000/svg" xmlns:xlink="http://www.w3.org/1999/xlink">
	<desc>
			Created with Pixso.
	</desc>
	<defs>
		<clipPath id="clip1_1349">
			<rect id="map 1" width="28.000000" height="28.000000" fill="white" fill-opacity="0"/>
		</clipPath>
	</defs>
	<rect id="map 1" width="28.000000" height="28.000000" fill="#FFFFFF" fill-opacity="0"/>
	<g clip-path="url(#clip1_1349)">
		<path id="Vector" d="M24.24 1.95L20.73 0.52C19.48 0.02 18.11 -0.13 16.79 0.11C16.78 0.11 16.77 0.12 16.76 0.12L9.4 1.65L6.26 0.34C6.25 0.34 6.25 0.34 6.25 0.34C3.33 -0.9 -0.04 1.37 0 4.54L0 20.47C0 22.93 1.47 25.11 3.75 26.04L7.27 27.47C8.12 27.82 9.03 27.99 9.94 27.99C10.36 27.99 10.79 27.96 11.21 27.88C11.22 27.88 11.22 27.88 11.23 27.88L18.59 26.34L21.74 27.65C21.74 27.65 21.74 27.65 21.74 27.65C23.15 28.22 24.73 28.06 25.99 27.21C27.24 26.37 27.99 24.96 27.99 23.45L27.99 7.52C27.99 5.07 26.52 2.88 24.24 1.95ZM25.8 23.45C25.8 24.24 25.43 24.96 24.77 25.4C24.11 25.84 23.31 25.93 22.57 25.63L19.12 24.19C18.91 24.11 18.69 24.09 18.47 24.13L10.8 25.73C9.89 25.89 8.95 25.8 8.09 25.45L4.57 24.01C3.12 23.43 2.19 22.03 2.19 20.47L2.19 4.54C2.19 3.75 2.57 3.03 3.23 2.59C3.89 2.14 4.69 2.07 5.42 2.36L8.88 3.8C9.08 3.88 9.3 3.9 9.52 3.86L17.19 2.26C18.1 2.1 19.04 2.2 19.9 2.55L23.42 3.98C24.87 4.57 25.8 5.96 25.8 7.52L25.8 23.45L25.8 23.45ZM10.88 12.52C10.88 13.27 10.27 13.89 9.51 13.89C7.7 13.81 7.7 11.22 9.51 11.15C10.27 11.15 10.88 11.76 10.88 12.52ZM19.85 15.58C19.85 16.34 19.23 16.95 18.48 16.95C16.67 16.87 16.67 14.29 18.48 14.21C19.23 14.21 19.85 14.83 19.85 15.58ZM9.51 9.24C8.91 9.24 8.42 8.75 8.42 8.15L8.42 7.05C8.48 5.6 10.55 5.6 10.61 7.05L10.61 8.15C10.61 8.75 10.12 9.24 9.51 9.24ZM10.61 22.52L10.61 16.89C10.55 15.44 8.48 15.44 8.42 16.89L8.42 22.52C8.42 23.13 8.91 23.62 9.51 23.62C10.12 23.62 10.61 23.13 10.61 22.52ZM19.57 20.99L19.57 19.95C19.51 18.5 17.44 18.5 17.39 19.95L17.39 20.99C17.39 21.6 17.88 22.09 18.48 22.09C19.08 22.09 19.57 21.6 19.57 20.99ZM19.57 11.21L19.57 5.52C19.51 4.07 17.44 4.07 17.39 5.52L17.39 11.21C17.39 11.81 17.88 12.3 18.48 12.3C19.08 12.3 19.57 11.81 19.57 11.21Z" fill="#FFFFFF" fill-opacity="0.700000" fill-rule="nonzero"/>
	</g>
</svg>
