<svg width="43.000000" height="44.530434" viewBox="0 0 43 44.5304" fill="none" xmlns="http://www.w3.org/2000/svg" xmlns:xlink="http://www.w3.org/1999/xlink">
	<desc>
			Created with Pixso.
	</desc>
	<defs/>
	<path id="Vector" d="M36.71 0C33.25 0 30.43 3.03 30.43 6.77C30.43 8.29 31.31 10.57 33.13 13.76C33.77 14.88 34.4 15.9 34.88 16.64L15.92 16.64C12.21 16.64 9.18 19.9 9.18 23.91C9.18 27.92 12.21 31.18 15.92 31.18L24.55 31.18C26.49 31.18 28.08 32.89 28.08 34.98C28.08 37.08 26.49 38.79 24.55 38.79L8.18 38.79C7.69 36.9 6.07 35.52 4.17 35.52C1.87 35.52 0 37.54 0 40.02C0 42.51 1.87 44.53 4.17 44.53C5.99 44.53 7.54 43.26 8.11 41.51C8.11 41.51 8.11 41.51 8.11 41.51L24.55 41.51C27.88 41.51 30.6 38.58 30.6 34.98C30.6 31.39 27.88 28.46 24.55 28.46L15.92 28.46C13.59 28.46 11.7 26.42 11.7 23.91C11.7 21.4 13.59 19.36 15.92 19.36L36.71 19.36L36.71 19.36L36.71 19.36L37.73 17.88C37.78 17.81 39.03 15.98 40.3 13.76C42.11 10.57 43 8.29 43 6.77C43 3.03 40.18 0 36.71 0ZM4.17 41.81C3.26 41.81 2.51 41.01 2.51 40.02C2.51 39.04 3.26 38.24 4.17 38.24C5.08 38.24 5.82 39.04 5.82 40.02C5.82 41.01 5.08 41.81 4.17 41.81ZM36.71 14.73C34.91 11.89 32.95 8.24 32.95 6.77C32.95 4.53 34.64 2.71 36.71 2.71C38.79 2.71 40.48 4.53 40.48 6.77C40.48 8.24 38.52 11.89 36.71 14.73Z" fill="#656CEE" fill-opacity="1.000000" fill-rule="nonzero"/>
</svg>
