<svg width="28.000000" height="28.000000" viewBox="0 0 28 28" fill="none" xmlns="http://www.w3.org/2000/svg" xmlns:xlink="http://www.w3.org/1999/xlink">
	<desc>
			Created with Pixso.
	</desc>
	<defs>
		<clipPath id="clip1_1351">
			<rect id="wallet-passes-app 1" width="28.000000" height="28.000000" fill="white" fill-opacity="0"/>
		</clipPath>
	</defs>
	<rect id="wallet-passes-app 1" width="28.000000" height="28.000000" fill="#FFFFFF" fill-opacity="0"/>
	<g clip-path="url(#clip1_1351)">
		<path id="Vector" d="M26.9 7.71C27.5 7.71 27.99 7.22 27.99 6.62L27.99 5.47C27.99 2.45 25.54 0 22.52 0C22.52 0 5.38 0 5.34 0C3.89 0.05 2.51 0.67 1.51 1.72C0.48 2.79 -0.05 4.19 0 5.66C0 5.68 0 21.43 0 21.43C0 25.05 2.94 28 6.56 28L22.52 28C25.54 28 27.99 25.54 27.99 22.52L27.99 14.22C27.99 11.2 25.54 8.75 22.52 8.75L5.47 8.75C3.71 8.75 2.27 7.38 2.19 5.62C2.15 4.73 2.47 3.88 3.09 3.23C3.72 2.57 4.61 2.19 5.53 2.19C5.56 2.19 22.52 2.18 22.52 2.18C24.33 2.18 25.81 3.66 25.81 5.47L25.81 6.62C25.81 7.22 26.3 7.71 26.9 7.71ZM5.47 10.94L22.52 10.94C24.33 10.94 25.81 12.41 25.81 14.22L25.81 22.52C25.81 24.33 24.33 25.81 22.52 25.81L6.56 25.81C4.15 25.81 2.18 23.84 2.18 21.43L2.18 9.85C3.1 10.53 4.24 10.94 5.47 10.94ZM23.62 18.37C23.62 19.13 23.01 19.74 22.25 19.74C20.44 19.67 20.44 17.08 22.25 17C23.01 17 23.62 17.62 23.62 18.37ZM23.62 5.47C23.62 4.86 23.13 4.37 22.53 4.37L5.47 4.37C4.01 4.43 4.02 6.5 5.47 6.56L22.53 6.56C23.13 6.56 23.62 6.07 23.62 5.47Z" fill="#FFFFFF" fill-opacity="0.700000" fill-rule="nonzero"/>
	</g>
</svg>
