<svg width="41.000000" height="40.000000" viewBox="0 0 41 40" fill="none" xmlns="http://www.w3.org/2000/svg" xmlns:xlink="http://www.w3.org/1999/xlink">
	<desc>
			Created with Pixso.
	</desc>
	<defs/>
	<rect id="Rectangle 217" rx="8.000000" width="41.000000" height="40.000000" fill="#656CEE" fill-opacity="1.000000"/>
	<path id="Shape" d="M29.8334 12.0192C29.5772 11.2692 28.8084 10.7692 28.0397 10.7692L13.9459 10.7692C13.049 10.7692 12.4084 11.2692 12.1522 12.0192L9.46155 19.5192L9.46155 29.5192C9.46155 30.2692 9.97406 30.7692 10.7428 30.7692L12.024 30.7692C12.7928 30.7692 13.3053 30.2692 13.3053 29.5192L13.3053 28.2692L28.6803 28.2692L28.6803 29.5192C28.6803 30.2692 29.1928 30.7692 29.9615 30.7692L31.2428 30.7692C32.0115 30.7692 32.524 30.2692 32.524 29.5192L32.524 19.5192L29.8334 12.0192ZM13.9466 12.6442L12.0247 18.2692L29.9622 18.2692L28.0403 12.6442L13.9466 12.6442ZM12.0247 22.6442C12.0247 23.6442 12.9216 24.5192 13.9466 24.5192C14.9716 24.5192 15.8685 23.6442 15.8685 22.6442C15.8685 21.6442 14.9716 20.7692 13.9466 20.7692C12.9216 20.7692 12.0247 21.6442 12.0247 22.6442ZM28.0403 24.5192C27.0153 24.5192 26.1185 23.6442 26.1185 22.6442C26.1185 21.6442 27.0153 20.7692 28.0403 20.7692C29.0653 20.7692 29.9622 21.6442 29.9622 22.6442C29.9622 23.6442 29.0653 24.5192 28.0403 24.5192Z" clip-rule="evenodd" fill="#FFFFFF" fill-opacity="1.000000" fill-rule="evenodd"/>
</svg>
